<?xml version="1.0" standalone="no"?>
<!DOCTYPE svg PUBLIC "-//W3C//DTD SVG 20010904//EN"
 "http://www.w3.org/TR/2001/REC-SVG-20010904/DTD/svg10.dtd">
<svg version="1.0" xmlns="http://www.w3.org/2000/svg"
 width="300.000000pt" height="300.000000pt" viewBox="0 0 300.000000 300.000000"
 preserveAspectRatio="xMidYMid meet">
<metadata>
Created by potrace 1.10, written by Peter Selinger 2001-2011
</metadata>
<g transform="translate(0.000000,300.000000) scale(0.100000,-0.100000)"
fill="#000000" stroke="none">
<path d="M1389 2938 c-17 -35 -44 -75 -60 -90 -27 -25 -29 -32 -29 -106 0 -71
-2 -81 -25 -102 -22 -21 -25 -31 -25 -101 l0 -77 -50 -43 -50 -44 0 -80 0 -81
-50 -49 -50 -49 0 -78 c0 -64 -5 -88 -25 -128 -18 -35 -25 -65 -25 -105 l0
-55 -75 0 -75 0 0 30 c0 17 -11 53 -25 80 -20 40 -25 64 -25 128 l0 78 -50 49
-50 49 0 77 c0 69 -3 79 -25 100 -22 21 -25 32 -25 100 0 68 -2 78 -26 100
-14 13 -41 54 -60 92 l-34 67 -55 0 -55 0 -34 -67 c-19 -38 -46 -79 -60 -92
-24 -22 -26 -31 -26 -101 0 -71 -2 -79 -25 -96 -23 -17 -25 -25 -25 -100 l0
-81 -50 -47 -50 -47 0 -80 c0 -65 -5 -89 -25 -129 -24 -48 -25 -55 -25 -262 0
-168 -5 -253 -25 -403 -23 -178 -25 -220 -25 -642 l0 -453 -25 0 c-18 0 -25
-5 -25 -20 0 -30 44 -26 69 6 21 26 21 37 21 465 0 409 2 452 25 635 19 153
25 242 25 401 0 195 1 206 25 263 18 44 25 77 25 128 0 66 2 71 38 113 54 61
62 80 62 145 0 41 6 66 22 93 16 25 25 59 29 109 5 59 10 78 31 100 14 15 35
46 47 69 34 69 78 68 113 -1 11 -22 34 -57 49 -76 25 -29 29 -44 29 -93 0 -43
7 -70 25 -105 18 -33 25 -62 25 -100 0 -57 15 -95 50 -127 36 -33 50 -70 50
-139 0 -47 6 -78 25 -118 14 -29 25 -62 25 -74 0 -11 12 -31 26 -45 22 -20 36
-24 89 -24 83 0 115 26 115 92 0 24 11 70 25 103 19 44 25 77 25 130 0 68 1
72 39 113 53 59 61 77 61 147 0 56 3 63 39 103 53 58 61 77 61 144 1 44 7 68
25 98 19 31 25 54 25 102 0 54 4 67 29 95 32 37 81 129 81 153 0 35 -32 11
-61 -47z"/>
<path d="M1550 2975 c19 -51 54 -111 81 -143 26 -29 29 -40 29 -98 0 -52 5
-72 22 -97 17 -24 24 -49 27 -105 3 -70 5 -74 49 -123 41 -46 46 -57 49 -107
6 -88 11 -100 55 -148 41 -45 42 -48 48 -132 4 -58 14 -102 28 -132 12 -25 22
-65 22 -91 0 -36 5 -51 26 -70 22 -20 35 -24 89 -24 54 1 68 5 90 25 14 13 25
33 25 44 0 12 11 45 25 74 19 40 25 71 25 118 0 69 14 106 50 139 35 32 50 70
50 127 0 38 7 67 25 100 19 35 25 62 25 107 0 52 4 65 29 93 15 18 38 52 49
75 33 64 78 68 109 9 9 -17 30 -48 46 -68 25 -32 31 -50 37 -110 4 -49 13 -84
28 -108 16 -26 22 -51 22 -95 0 -64 7 -80 67 -148 31 -35 33 -42 33 -110 0
-56 6 -84 25 -125 24 -52 25 -61 25 -260 0 -160 6 -252 25 -407 23 -186 25
-231 25 -641 l0 -441 23 -21 c30 -28 67 -29 67 -2 0 15 -7 20 -25 20 l-25 0 0
453 c0 422 -2 464 -25 642 -20 150 -25 235 -25 403 0 207 -1 214 -25 262 -21
41 -25 64 -25 133 l0 83 -50 49 -50 49 0 76 c0 69 -3 79 -25 100 -22 21 -25
31 -25 100 0 72 -2 78 -31 106 -17 16 -44 55 -60 87 l-29 57 -55 0 -55 0 -34
-67 c-19 -38 -46 -79 -60 -92 -24 -22 -26 -32 -26 -100 0 -68 -3 -79 -25 -100
-22 -21 -25 -31 -25 -100 l0 -77 -50 -49 -50 -49 0 -78 c0 -64 -5 -88 -25
-128 -14 -27 -25 -63 -25 -80 l0 -30 -75 0 -75 0 0 55 c0 40 -7 70 -25 105
-20 40 -25 64 -25 128 l0 78 -50 49 -50 49 0 81 0 80 -50 44 -50 43 0 77 c0
70 -3 80 -25 101 -23 21 -25 31 -25 102 0 74 -2 81 -29 106 -16 15 -43 55 -60
90 -22 44 -37 62 -51 62 -17 0 -18 -4 -10 -25z"/>
<path d="M1453 2908 c-79 -87 -106 -184 -60 -225 18 -17 37 -21 106 -22 74 -2
86 0 107 20 47 44 22 136 -63 232 -22 24 -65 21 -90 -5z m86 -45 c10 -21 28
-47 40 -57 15 -14 21 -31 21 -63 l0 -43 -100 0 -100 0 0 45 c0 30 5 48 14 51
7 3 26 27 40 55 34 61 58 64 85 12z"/>
<path d="M1380 2633 c-64 -23 -83 -113 -34 -152 24 -19 40 -21 154 -21 114 0
130 2 154 21 21 16 26 29 26 62 -1 79 -35 97 -183 96 -56 0 -109 -3 -117 -6z
m268 -85 l3 -48 -150 0 -151 0 0 43 c0 24 3 47 7 51 4 3 70 5 147 4 l141 -3 3
-47z"/>
<path d="M427 2568 c-47 -59 -57 -80 -57 -127 0 -60 27 -81 105 -81 78 0 105
23 105 91 -1 36 -8 54 -43 99 -24 30 -50 56 -59 58 -9 2 -31 -16 -51 -40z m63
-3 c0 -8 14 -30 30 -48 23 -27 30 -44 30 -76 l0 -41 -75 0 -75 0 0 43 c0 32 6
49 21 63 12 10 28 34 36 52 13 32 33 36 33 7z"/>
<path d="M2477 2568 c-70 -86 -79 -138 -35 -185 18 -19 32 -23 84 -23 58 0 64
2 89 32 21 25 26 39 22 65 -6 38 -85 146 -109 151 -9 2 -31 -15 -51 -40z m63
-3 c0 -8 14 -30 30 -48 23 -27 30 -44 30 -76 l0 -41 -75 0 -75 0 0 43 c0 32 6
49 21 63 12 10 28 34 36 52 13 32 33 36 33 7z"/>
<path d="M1314 2431 c-29 -13 -84 -70 -95 -99 -14 -36 -2 -78 28 -102 24 -19
40 -20 255 -20 l230 0 30 30 c26 26 30 36 25 66 -6 38 -31 73 -74 107 -26 21
-39 22 -203 24 -96 1 -184 -2 -196 -6z m403 -63 c27 -26 33 -39 33 -75 l0 -43
-250 0 -250 0 0 42 c0 34 6 49 32 75 l32 33 185 0 185 0 33 -32z"/>
<path d="M371 2329 c-36 -14 -50 -39 -51 -86 0 -33 5 -46 26 -62 23 -18 41
-21 129 -21 88 0 106 3 129 21 21 16 26 29 26 62 -1 48 -15 72 -54 87 -34 12
-172 12 -205 -1z m227 -81 l3 -48 -125 0 -126 0 0 43 c0 24 3 47 7 51 4 3 59
5 122 4 l116 -3 3 -47z"/>
<path d="M2421 2329 c-36 -14 -50 -39 -51 -86 0 -66 26 -80 153 -82 91 -2 106
1 130 19 22 17 27 30 27 63 -1 48 -15 72 -54 87 -34 12 -172 12 -205 -1z m227
-81 l3 -48 -125 0 -126 0 0 43 c0 24 3 47 7 51 4 3 59 5 122 4 l116 -3 3 -47z"/>
<path d="M1225 2179 c-93 -29 -141 -149 -79 -198 26 -20 38 -21 354 -21 316 0
328 1 354 21 21 17 26 29 26 65 0 36 -6 51 -36 84 -21 23 -51 44 -72 50 -46
12 -506 12 -547 -1z m592 -61 c27 -26 33 -39 33 -75 l0 -43 -350 0 -350 0 0
42 c0 34 6 49 32 75 l32 33 285 0 285 0 33 -32z"/>
<path d="M314 2130 c-12 -5 -38 -25 -58 -45 -32 -31 -36 -42 -36 -85 0 -41 4
-52 26 -69 25 -20 39 -21 231 -21 l205 0 30 30 c26 26 30 36 25 66 -6 38 -31
73 -74 107 -25 20 -40 22 -178 24 -82 1 -160 -2 -171 -7z m353 -62 c27 -26 33
-39 33 -75 l0 -43 -225 0 -225 0 0 42 c0 34 6 49 32 75 l32 33 160 0 160 0 33
-32z"/>
<path d="M2364 2130 c-12 -5 -38 -25 -58 -45 -32 -31 -36 -42 -36 -85 0 -41 4
-52 26 -69 25 -20 39 -21 231 -21 l205 0 30 30 c43 43 35 88 -27 150 l-45 45
-153 2 c-83 1 -162 -2 -173 -7z m353 -62 c27 -26 33 -39 33 -75 l0 -43 -225 0
-225 0 0 42 c0 34 6 49 32 75 l32 33 160 0 160 0 33 -32z"/>
<path d="M1111 1914 c-17 -14 -35 -40 -40 -57 -13 -48 -14 -357 -1 -393 15
-41 46 -54 135 -54 64 0 78 3 102 24 l28 24 3 151 3 151 159 0 159 0 3 -151 3
-151 28 -24 c24 -21 38 -24 102 -24 89 0 120 13 135 53 5 16 10 106 10 199 0
185 -7 219 -55 256 -27 22 -34 22 -386 22 l-357 0 -31 -26z m774 -44 c12 -23
15 -69 15 -225 l0 -195 -100 0 -100 0 0 175 0 175 -200 0 -200 0 0 -175 0
-175 -100 0 -100 0 0 195 c0 156 3 202 15 225 l16 30 369 0 369 0 16 -30z"/>
<path d="M233 1880 c-13 -5 -32 -24 -43 -42 -18 -30 -20 -51 -20 -209 0 -165
1 -177 21 -195 13 -11 35 -19 59 -19 69 0 80 20 80 151 0 62 3 119 6 128 9 24
269 24 278 0 3 -9 6 -66 6 -128 0 -98 3 -115 19 -130 31 -28 82 -31 114 -6
l28 22 -3 189 -3 189 -28 27 -27 28 -233 2 c-127 1 -242 -2 -254 -7z m502 -60
c12 -23 15 -66 15 -200 l0 -170 -50 0 -50 0 0 150 0 150 -175 0 -175 0 0 -150
0 -150 -50 0 -50 0 0 170 c0 134 3 177 15 200 l16 30 244 0 244 0 16 -30z"/>
<path d="M2285 1881 c-11 -5 -29 -19 -40 -31 -18 -20 -20 -39 -23 -210 l-3
-188 28 -22 c32 -25 83 -22 114 6 17 15 19 32 19 133 0 64 4 122 8 129 12 18
262 18 273 0 5 -7 9 -65 9 -129 0 -105 2 -118 21 -135 28 -25 91 -25 119 1 20
18 21 26 18 207 l-3 188 -28 27 -27 28 -233 2 c-127 1 -241 -2 -252 -6z m500
-61 c12 -23 15 -66 15 -200 l0 -170 -50 0 -50 0 0 150 0 150 -175 0 -175 0 0
-150 0 -150 -50 0 -50 0 0 170 c0 134 3 177 15 200 l16 30 244 0 244 0 16 -30z"/>
<path d="M1410 1718 c-24 -13 -25 -17 -28 -139 -3 -155 -4 -154 118 -154 121
0 120 -1 120 150 0 99 -3 125 -16 135 -22 19 -163 24 -194 8z m190 -143 l0
-125 -100 0 -100 0 0 125 0 125 100 0 100 0 0 -125z"/>
<path d="M842 1667 c-19 -21 -22 -34 -22 -119 0 -92 1 -97 26 -117 43 -34 150
-26 176 13 4 6 8 54 8 107 0 87 -2 97 -23 117 -34 32 -134 32 -165 -1z m158
-117 l0 -100 -75 0 -75 0 0 100 0 100 75 0 75 0 0 -100z"/>
<path d="M1992 1667 c-19 -21 -22 -34 -22 -119 0 -92 1 -97 26 -117 19 -15 41
-21 79 -21 38 0 60 6 79 21 25 20 26 25 26 118 0 89 -2 99 -23 119 -34 32
-134 32 -165 -1z m158 -117 l0 -100 -75 0 -75 0 0 100 0 100 75 0 75 0 0 -100z"/>
<path d="M410 1668 c-24 -13 -25 -18 -28 -114 -3 -122 2 -129 93 -129 90 0 95
7 95 125 0 76 -3 100 -16 111 -22 18 -114 23 -144 7z m140 -118 l0 -100 -75 0
-75 0 0 100 0 100 75 0 75 0 0 -100z"/>
<path d="M2460 1668 c-24 -13 -25 -18 -28 -114 -3 -122 2 -129 93 -129 90 0
95 7 95 125 0 76 -3 100 -16 111 -22 18 -114 23 -144 7z m140 -118 l0 -100
-75 0 -75 0 0 100 0 100 75 0 75 0 0 -100z"/>
<path d="M182 1359 c-20 -20 -33 -86 -48 -232 -12 -115 -46 -107 462 -107 238
0 439 -3 448 -6 50 -19 -37 -24 -435 -24 l-441 0 -29 -30 -30 -29 3 -312 3
-311 28 -24 28 -24 1330 0 1331 0 29 29 29 29 0 310 0 310 -31 26 -31 26 -445
0 c-351 0 -444 3 -441 13 4 9 104 13 448 15 521 3 486 -5 476 105 -3 37 -11
102 -18 144 -18 127 149 113 -1348 113 l-1299 0 -19 -21z m2642 -146 c10 -75
20 -143 23 -150 4 -11 -83 -13 -471 -13 l-476 0 0 -50 0 -50 475 0 475 0 0
-325 0 -325 -1350 0 -1350 0 0 325 0 325 475 0 475 0 0 50 0 50 -476 0 c-388
0 -475 2 -471 13 3 7 13 75 23 150 l17 137 1307 0 1307 0 17 -137z"/>
<path d="M1423 1210 c-85 -59 -114 -96 -121 -156 -4 -36 -13 -51 -53 -89 l-49
-46 0 -259 0 -260 300 0 300 0 0 260 0 259 -49 46 c-40 38 -49 53 -53 89 -7
60 -37 98 -123 156 -41 28 -75 50 -77 49 -2 0 -35 -22 -75 -49z m132 -26 c71
-47 95 -76 112 -134 9 -32 32 -74 54 -101 l39 -47 0 -231 0 -231 -260 0 -260
0 0 234 0 235 39 45 c23 27 46 67 55 98 15 53 44 88 111 136 40 28 62 27 110
-4z"/>
<path d="M1432 1120 c-24 -17 -44 -41 -47 -55 -3 -14 -8 -37 -11 -52 -3 -15
-25 -49 -50 -75 l-44 -47 0 -194 c0 -169 2 -196 17 -208 12 -11 59 -14 203
-14 144 0 191 3 203 14 15 12 17 39 17 208 l0 194 -44 47 c-25 26 -47 61 -51
77 -3 17 -8 40 -11 53 -6 29 -79 82 -114 82 -15 0 -46 -13 -68 -30z m123 -18
c36 -25 40 -33 43 -73 3 -40 9 -52 52 -94 l50 -49 0 -193 0 -193 -200 0 -200
0 0 193 0 193 50 49 c43 42 49 54 52 94 3 40 7 48 43 73 22 15 47 27 55 27 8
0 33 -12 55 -27z"/>
<path d="M300 1200 l0 -50 450 0 450 0 0 50 0 50 -450 0 -450 0 0 -50z m850
10 c38 -25 -26 -30 -407 -30 -380 0 -415 3 -398 30 8 13 784 13 805 0z"/>
<path d="M1800 1200 l0 -50 450 0 450 0 0 50 0 50 -450 0 -450 0 0 -50z m850
10 c38 -25 -26 -30 -407 -30 -380 0 -415 3 -398 30 8 13 784 13 805 0z"/>
<path d="M1145 1010 c-4 -6 12 -10 39 -10 25 0 46 5 46 10 0 6 -18 10 -39 10
-22 0 -43 -4 -46 -10z"/>
<path d="M1775 1010 c-4 -6 12 -10 40 -10 28 0 44 4 40 10 -3 6 -21 10 -40 10
-19 0 -37 -4 -40 -10z"/>
<path d="M250 625 l0 -225 50 0 50 0 0 225 0 225 -50 0 -50 0 0 -225z m60 0
c0 -110 -4 -175 -10 -175 -6 0 -10 65 -10 175 0 110 4 175 10 175 6 0 10 -65
10 -175z"/>
<path d="M500 625 l0 -225 50 0 50 0 0 225 0 225 -50 0 -50 0 0 -225z m60 0
c0 -110 -4 -175 -10 -175 -6 0 -10 65 -10 175 0 110 4 175 10 175 6 0 10 -65
10 -175z"/>
<path d="M750 625 l0 -225 50 0 50 0 0 225 0 225 -50 0 -50 0 0 -225z m60 0
c0 -110 -4 -175 -10 -175 -6 0 -10 65 -10 175 0 110 4 175 10 175 6 0 10 -65
10 -175z"/>
<path d="M1000 625 l0 -225 50 0 50 0 0 225 0 225 -50 0 -50 0 0 -225z m60 0
c0 -110 -4 -175 -10 -175 -6 0 -10 65 -10 175 0 110 4 175 10 175 6 0 10 -65
10 -175z"/>
<path d="M1900 625 l0 -225 50 0 50 0 0 225 0 225 -50 0 -50 0 0 -225z m60 0
c0 -110 -4 -175 -10 -175 -6 0 -10 65 -10 175 0 110 4 175 10 175 6 0 10 -65
10 -175z"/>
<path d="M2150 625 l0 -225 50 0 50 0 0 225 0 225 -50 0 -50 0 0 -225z m60 0
c0 -110 -4 -175 -10 -175 -6 0 -10 65 -10 175 0 110 4 175 10 175 6 0 10 -65
10 -175z"/>
<path d="M2400 625 l0 -225 50 0 50 0 0 225 0 225 -50 0 -50 0 0 -225z m60 0
c0 -110 -4 -175 -10 -175 -6 0 -10 65 -10 175 0 110 4 175 10 175 6 0 10 -65
10 -175z"/>
<path d="M2650 625 l0 -225 50 0 50 0 0 225 0 225 -50 0 -50 0 0 -225z m60 0
c0 -110 -4 -175 -10 -175 -6 0 -10 65 -10 175 0 110 4 175 10 175 6 0 10 -65
10 -175z"/>
<path d="M175 233 c-39 -10 -55 -34 -55 -83 0 -35 5 -52 21 -66 21 -18 57 -19
1359 -19 1302 0 1338 1 1359 19 30 27 30 105 0 132 -21 18 -58 19 -1343 20
-726 1 -1330 0 -1341 -3z m2675 -83 l0 -50 -1350 0 -1350 0 0 50 0 50 1350 0
1350 0 0 -50z"/>
</g>
</svg>
